<?xml version="1.0" standalone="no"?>
<!DOCTYPE svg PUBLIC "-//W3C//DTD SVG 20010904//EN"
 "http://www.w3.org/TR/2001/REC-SVG-20010904/DTD/svg10.dtd">
<svg version="1.0" xmlns="http://www.w3.org/2000/svg"
 width="512.000000pt" height="512.000000pt" viewBox="0 0 512.000000 512.000000"
 preserveAspectRatio="xMidYMid meet">
<metadata>
Created by potrace 1.16, written by Peter Selinger 2001-2019
</metadata>
<g transform="translate(0.000000,512.000000) scale(0.100000,-0.100000)"
fill="#000000" stroke="none">
<path d="M0 2560 l0 -2560 2560 0 2560 0 0 2560 0 2560 -2560 0 -2560 0 0
-2560z m3061 766 c217 -39 403 -181 500 -384 51 -105 61 -151 66 -292 4 -112
0 -146 -33 -248 -57 -178 -216 -347 -388 -414 -28 -11 -60 -24 -71 -28 -11 -5
-33 -12 -50 -16 -45 -12 -1595 -16 -1595 -5 0 6 31 63 68 128 38 65 80 138 94
163 14 25 74 128 133 230 132 226 209 361 242 420 14 25 40 70 58 100 18 30
41 71 52 90 10 19 47 84 83 144 l64 109 21 -28 c13 -15 31 -43 42 -64 11 -20
37 -65 58 -101 21 -36 46 -81 57 -100 11 -19 24 -39 28 -45 4 -5 21 -35 37
-65 17 -30 55 -98 85 -150 121 -209 218 -380 218 -385 0 -3 -67 -5 -149 -5
-107 0 -151 4 -159 13 -6 6 -27 41 -47 77 -21 36 -46 80 -56 98 -11 18 -38 66
-60 105 -22 40 -49 80 -59 91 -17 18 -19 16 -70 -70 -29 -49 -64 -109 -78
-134 -14 -25 -63 -110 -109 -189 -45 -79 -83 -150 -83 -157 0 -12 81 -14 543
-12 l542 3 68 34 c113 56 190 142 232 263 23 66 20 214 -6 282 -29 79 -97 166
-162 209 -99 66 -121 71 -337 77 l-195 5 -72 125 c-40 68 -73 128 -73 132 0
14 479 8 561 -6z"/>
</g>
</svg>
